<mxfile host="app.diagrams.net" agent="Mozilla/5.0 (Macintosh; Intel Mac OS X 10_15_7) AppleWebKit/537.36 (KHTML, like Gecko) Chrome/131.0.0.0 Safari/537.36" version="26.0.6">
  <diagram name="Seite-1" id="qycKdNhwJ5hw0yU1IKrN">
    <mxGraphModel dx="1224" dy="761" grid="1" gridSize="10" guides="1" tooltips="1" connect="1" arrows="1" fold="1" page="1" pageScale="1" pageWidth="827" pageHeight="1169" math="0" shadow="0">
      <root>
        <mxCell id="0" />
        <mxCell id="1" parent="0" />
        <mxCell id="H8hfMKlNT23oGRBbjLYy-1" value="«device» artpc17" style="verticalAlign=top;align=center;shape=cube;size=10;direction=south;html=1;boundedLbl=1;spacingLeft=5;whiteSpace=wrap;" vertex="1" parent="1">
          <mxGeometry x="38" y="130" width="190" height="210" as="geometry" />
        </mxCell>
        <mxCell id="H8hfMKlNT23oGRBbjLYy-2" value="«component»&lt;br&gt;&lt;b&gt;Terraform Modul&lt;br&gt;tf-module-local-persistant-volume&lt;/b&gt;" style="html=1;dropTarget=0;whiteSpace=wrap;" vertex="1" parent="1">
          <mxGeometry x="48" y="250" width="160" height="80" as="geometry" />
        </mxCell>
        <mxCell id="H8hfMKlNT23oGRBbjLYy-3" value="" style="shape=module;jettyWidth=8;jettyHeight=4;" vertex="1" parent="H8hfMKlNT23oGRBbjLYy-2">
          <mxGeometry x="1" width="20" height="20" relative="1" as="geometry">
            <mxPoint x="-27" y="7" as="offset" />
          </mxGeometry>
        </mxCell>
        <mxCell id="H8hfMKlNT23oGRBbjLYy-4" value="" style="group" vertex="1" connectable="0" parent="1">
          <mxGeometry x="48" y="170" width="160" height="70" as="geometry" />
        </mxCell>
        <mxCell id="H8hfMKlNT23oGRBbjLYy-5" value="«artefact»&lt;br&gt;&lt;b&gt;Terraform&lt;/b&gt;" style="html=1;dropTarget=0;whiteSpace=wrap;" vertex="1" parent="H8hfMKlNT23oGRBbjLYy-4">
          <mxGeometry width="160" height="70" as="geometry" />
        </mxCell>
        <mxCell id="H8hfMKlNT23oGRBbjLYy-6" value="" style="shape=note2;boundedLbl=1;whiteSpace=wrap;html=1;size=6;verticalAlign=top;align=left;spacingLeft=5;" vertex="1" parent="H8hfMKlNT23oGRBbjLYy-4">
          <mxGeometry x="129.23076923076923" y="8.75" width="18.46153846153846" height="17.5" as="geometry" />
        </mxCell>
        <mxCell id="H8hfMKlNT23oGRBbjLYy-7" style="edgeStyle=orthogonalEdgeStyle;rounded=0;orthogonalLoop=1;jettySize=auto;html=1;endArrow=none;endFill=0;entryX=0.552;entryY=1;entryDx=0;entryDy=0;entryPerimeter=0;" edge="1" parent="1" target="H8hfMKlNT23oGRBbjLYy-10">
          <mxGeometry relative="1" as="geometry">
            <mxPoint x="542" y="275" as="targetPoint" />
            <Array as="points">
              <mxPoint x="228" y="242" />
            </Array>
            <mxPoint x="228" y="242" as="sourcePoint" />
          </mxGeometry>
        </mxCell>
        <mxCell id="H8hfMKlNT23oGRBbjLYy-8" value="&lt;span style=&quot;font-size: 12px; text-wrap: wrap; background-color: rgb(251, 251, 251);&quot;&gt;&lt;span style=&quot;text-wrap-style: initial; background-color: rgb(251, 251, 251);&quot;&gt;«&lt;/span&gt;&lt;span style=&quot;font-size: 11px; text-wrap-mode: nowrap; background-color: rgb(255, 255, 255);&quot;&gt;protocol&lt;/span&gt;&lt;span style=&quot;text-wrap-style: initial; background-color: rgb(251, 251, 251);&quot;&gt;»&lt;/span&gt;&lt;br style=&quot;font-size: 11px; text-wrap-mode: nowrap;&quot;&gt;&lt;span style=&quot;font-size: 11px; text-wrap-mode: nowrap; background-color: rgb(255, 255, 255);&quot;&gt;tcp: 6443&lt;/span&gt;&lt;/span&gt;" style="edgeLabel;html=1;align=center;verticalAlign=middle;resizable=0;points=[];" vertex="1" connectable="0" parent="H8hfMKlNT23oGRBbjLYy-7">
          <mxGeometry x="-0.2613" y="2" relative="1" as="geometry">
            <mxPoint x="-6" y="-20" as="offset" />
          </mxGeometry>
        </mxCell>
        <mxCell id="H8hfMKlNT23oGRBbjLYy-9" value="Verteilungsdiagramm: Terraform Local Storage" style="shape=umlFrame;whiteSpace=wrap;html=1;pointerEvents=0;recursiveResize=0;container=1;collapsible=0;width=270;height=30;" vertex="1" parent="1">
          <mxGeometry x="17" y="40" width="783" height="470" as="geometry" />
        </mxCell>
        <mxCell id="H8hfMKlNT23oGRBbjLYy-10" value="«cluster» Kubernetes Cluster" style="verticalAlign=top;align=center;shape=cube;size=10;direction=south;html=1;boundedLbl=1;spacingLeft=5;whiteSpace=wrap;" vertex="1" parent="H8hfMKlNT23oGRBbjLYy-9">
          <mxGeometry x="362" y="20" width="400" height="430" as="geometry" />
        </mxCell>
        <mxCell id="H8hfMKlNT23oGRBbjLYy-11" value="«StorageClass»&lt;b&gt;&lt;br&gt;localpv-storageclass&lt;/b&gt;" style="html=1;dropTarget=0;whiteSpace=wrap;" vertex="1" parent="H8hfMKlNT23oGRBbjLYy-9">
          <mxGeometry x="370" y="60" width="160" height="60" as="geometry" />
        </mxCell>
        <mxCell id="H8hfMKlNT23oGRBbjLYy-12" value="" style="shape=module;jettyWidth=8;jettyHeight=4;" vertex="1" parent="H8hfMKlNT23oGRBbjLYy-11">
          <mxGeometry x="1" width="20" height="20" relative="1" as="geometry">
            <mxPoint x="-23" y="3" as="offset" />
          </mxGeometry>
        </mxCell>
        <mxCell id="H8hfMKlNT23oGRBbjLYy-18" style="rounded=0;orthogonalLoop=1;jettySize=auto;html=1;exitX=0;exitY=0.25;exitDx=0;exitDy=0;entryX=0.75;entryY=1;entryDx=0;entryDy=0;dashed=1;endArrow=open;endFill=0;strokeWidth=1;endSize=9;startSize=6;" edge="1" parent="H8hfMKlNT23oGRBbjLYy-9" source="H8hfMKlNT23oGRBbjLYy-21" target="H8hfMKlNT23oGRBbjLYy-11">
          <mxGeometry relative="1" as="geometry">
            <mxPoint x="613" y="375" as="sourcePoint" />
            <mxPoint x="613" y="325" as="targetPoint" />
            <Array as="points" />
          </mxGeometry>
        </mxCell>
        <mxCell id="H8hfMKlNT23oGRBbjLYy-19" value="«PersistentVolume»&lt;b&gt;&lt;br&gt;localpv-volume&lt;/b&gt;" style="html=1;dropTarget=0;whiteSpace=wrap;" vertex="1" parent="H8hfMKlNT23oGRBbjLYy-9">
          <mxGeometry x="583" y="60" width="160" height="60" as="geometry" />
        </mxCell>
        <mxCell id="H8hfMKlNT23oGRBbjLYy-20" value="" style="shape=module;jettyWidth=8;jettyHeight=4;" vertex="1" parent="H8hfMKlNT23oGRBbjLYy-19">
          <mxGeometry x="1" width="20" height="20" relative="1" as="geometry">
            <mxPoint x="-23" y="3" as="offset" />
          </mxGeometry>
        </mxCell>
        <mxCell id="H8hfMKlNT23oGRBbjLYy-21" value="«PersistentVolumeClaim»&lt;b&gt;&lt;br&gt;localpv-claim&lt;/b&gt;" style="html=1;dropTarget=0;whiteSpace=wrap;" vertex="1" parent="H8hfMKlNT23oGRBbjLYy-9">
          <mxGeometry x="583" y="150" width="160" height="60" as="geometry" />
        </mxCell>
        <mxCell id="H8hfMKlNT23oGRBbjLYy-22" value="" style="shape=module;jettyWidth=8;jettyHeight=4;" vertex="1" parent="H8hfMKlNT23oGRBbjLYy-21">
          <mxGeometry x="1" width="20" height="20" relative="1" as="geometry">
            <mxPoint x="-23" y="3" as="offset" />
          </mxGeometry>
        </mxCell>
        <mxCell id="H8hfMKlNT23oGRBbjLYy-23" style="rounded=0;orthogonalLoop=1;jettySize=auto;html=1;exitX=0.5;exitY=0;exitDx=0;exitDy=0;entryX=0.5;entryY=1;entryDx=0;entryDy=0;dashed=1;endArrow=open;endFill=0;strokeWidth=1;endSize=9;startSize=6;" edge="1" parent="H8hfMKlNT23oGRBbjLYy-9" source="H8hfMKlNT23oGRBbjLYy-21" target="H8hfMKlNT23oGRBbjLYy-19">
          <mxGeometry relative="1" as="geometry">
            <mxPoint x="593" y="195" as="sourcePoint" />
            <mxPoint x="500" y="130" as="targetPoint" />
            <Array as="points" />
          </mxGeometry>
        </mxCell>
        <mxCell id="H8hfMKlNT23oGRBbjLYy-24" style="rounded=0;orthogonalLoop=1;jettySize=auto;html=1;exitX=0;exitY=0.5;exitDx=0;exitDy=0;entryX=1;entryY=0.5;entryDx=0;entryDy=0;dashed=1;endArrow=open;endFill=0;strokeWidth=1;endSize=9;startSize=6;" edge="1" parent="H8hfMKlNT23oGRBbjLYy-9" source="H8hfMKlNT23oGRBbjLYy-19" target="H8hfMKlNT23oGRBbjLYy-11">
          <mxGeometry relative="1" as="geometry">
            <mxPoint x="593" y="195" as="sourcePoint" />
            <mxPoint x="500" y="130" as="targetPoint" />
            <Array as="points" />
          </mxGeometry>
        </mxCell>
        <mxCell id="H8hfMKlNT23oGRBbjLYy-25" value="«StorageClass»&lt;b&gt;&lt;br&gt;monitoring-storage-alertmanager&lt;/b&gt;" style="html=1;dropTarget=0;whiteSpace=wrap;" vertex="1" parent="H8hfMKlNT23oGRBbjLYy-9">
          <mxGeometry x="370" y="230" width="160" height="60" as="geometry" />
        </mxCell>
        <mxCell id="H8hfMKlNT23oGRBbjLYy-26" value="" style="shape=module;jettyWidth=8;jettyHeight=4;" vertex="1" parent="H8hfMKlNT23oGRBbjLYy-25">
          <mxGeometry x="1" width="20" height="20" relative="1" as="geometry">
            <mxPoint x="-23" y="3" as="offset" />
          </mxGeometry>
        </mxCell>
        <mxCell id="H8hfMKlNT23oGRBbjLYy-27" value="«PersistentVolume»&lt;b&gt;&lt;br&gt;localpv-volume-alertmanager&lt;/b&gt;" style="html=1;dropTarget=0;whiteSpace=wrap;" vertex="1" parent="H8hfMKlNT23oGRBbjLYy-9">
          <mxGeometry x="583" y="230" width="160" height="60" as="geometry" />
        </mxCell>
        <mxCell id="H8hfMKlNT23oGRBbjLYy-28" value="" style="shape=module;jettyWidth=8;jettyHeight=4;" vertex="1" parent="H8hfMKlNT23oGRBbjLYy-27">
          <mxGeometry x="1" width="20" height="20" relative="1" as="geometry">
            <mxPoint x="-23" y="3" as="offset" />
          </mxGeometry>
        </mxCell>
        <mxCell id="H8hfMKlNT23oGRBbjLYy-29" style="rounded=0;orthogonalLoop=1;jettySize=auto;html=1;exitX=0;exitY=0.5;exitDx=0;exitDy=0;entryX=1;entryY=0.5;entryDx=0;entryDy=0;dashed=1;endArrow=open;endFill=0;strokeWidth=1;endSize=9;startSize=6;" edge="1" parent="H8hfMKlNT23oGRBbjLYy-9">
          <mxGeometry relative="1" as="geometry">
            <mxPoint x="583" y="259.5" as="sourcePoint" />
            <mxPoint x="530" y="259.5" as="targetPoint" />
            <Array as="points" />
          </mxGeometry>
        </mxCell>
        <mxCell id="H8hfMKlNT23oGRBbjLYy-30" value="«StorageClass»&lt;b&gt;&lt;br&gt;monitoring-storage-grafana&lt;/b&gt;" style="html=1;dropTarget=0;whiteSpace=wrap;" vertex="1" parent="H8hfMKlNT23oGRBbjLYy-9">
          <mxGeometry x="370" y="305" width="160" height="60" as="geometry" />
        </mxCell>
        <mxCell id="H8hfMKlNT23oGRBbjLYy-31" value="" style="shape=module;jettyWidth=8;jettyHeight=4;" vertex="1" parent="H8hfMKlNT23oGRBbjLYy-30">
          <mxGeometry x="1" width="20" height="20" relative="1" as="geometry">
            <mxPoint x="-23" y="3" as="offset" />
          </mxGeometry>
        </mxCell>
        <mxCell id="H8hfMKlNT23oGRBbjLYy-32" value="«PersistentVolume»&lt;b&gt;&lt;br&gt;localpv-volume-grafana&lt;/b&gt;" style="html=1;dropTarget=0;whiteSpace=wrap;" vertex="1" parent="H8hfMKlNT23oGRBbjLYy-9">
          <mxGeometry x="583" y="305" width="160" height="60" as="geometry" />
        </mxCell>
        <mxCell id="H8hfMKlNT23oGRBbjLYy-33" value="" style="shape=module;jettyWidth=8;jettyHeight=4;" vertex="1" parent="H8hfMKlNT23oGRBbjLYy-32">
          <mxGeometry x="1" width="20" height="20" relative="1" as="geometry">
            <mxPoint x="-23" y="3" as="offset" />
          </mxGeometry>
        </mxCell>
        <mxCell id="H8hfMKlNT23oGRBbjLYy-34" style="rounded=0;orthogonalLoop=1;jettySize=auto;html=1;exitX=0;exitY=0.5;exitDx=0;exitDy=0;entryX=1;entryY=0.5;entryDx=0;entryDy=0;dashed=1;endArrow=open;endFill=0;strokeWidth=1;endSize=9;startSize=6;" edge="1" parent="H8hfMKlNT23oGRBbjLYy-9">
          <mxGeometry relative="1" as="geometry">
            <mxPoint x="583" y="334.5" as="sourcePoint" />
            <mxPoint x="530" y="334.5" as="targetPoint" />
            <Array as="points" />
          </mxGeometry>
        </mxCell>
        <mxCell id="H8hfMKlNT23oGRBbjLYy-35" value="«StorageClass»&lt;b&gt;&lt;br&gt;monitoring-storage-prometheus&lt;/b&gt;" style="html=1;dropTarget=0;whiteSpace=wrap;" vertex="1" parent="H8hfMKlNT23oGRBbjLYy-9">
          <mxGeometry x="370" y="380" width="160" height="60" as="geometry" />
        </mxCell>
        <mxCell id="H8hfMKlNT23oGRBbjLYy-36" value="" style="shape=module;jettyWidth=8;jettyHeight=4;" vertex="1" parent="H8hfMKlNT23oGRBbjLYy-35">
          <mxGeometry x="1" width="20" height="20" relative="1" as="geometry">
            <mxPoint x="-23" y="3" as="offset" />
          </mxGeometry>
        </mxCell>
        <mxCell id="H8hfMKlNT23oGRBbjLYy-37" value="«PersistentVolume»&lt;b&gt;&lt;br&gt;localpv-volume-prometheus&lt;/b&gt;" style="html=1;dropTarget=0;whiteSpace=wrap;" vertex="1" parent="H8hfMKlNT23oGRBbjLYy-9">
          <mxGeometry x="583" y="380" width="160" height="60" as="geometry" />
        </mxCell>
        <mxCell id="H8hfMKlNT23oGRBbjLYy-38" value="" style="shape=module;jettyWidth=8;jettyHeight=4;" vertex="1" parent="H8hfMKlNT23oGRBbjLYy-37">
          <mxGeometry x="1" width="20" height="20" relative="1" as="geometry">
            <mxPoint x="-23" y="3" as="offset" />
          </mxGeometry>
        </mxCell>
        <mxCell id="H8hfMKlNT23oGRBbjLYy-39" style="rounded=0;orthogonalLoop=1;jettySize=auto;html=1;exitX=0;exitY=0.5;exitDx=0;exitDy=0;entryX=1;entryY=0.5;entryDx=0;entryDy=0;dashed=1;endArrow=open;endFill=0;strokeWidth=1;endSize=9;startSize=6;" edge="1" parent="H8hfMKlNT23oGRBbjLYy-9">
          <mxGeometry relative="1" as="geometry">
            <mxPoint x="583" y="409.5" as="sourcePoint" />
            <mxPoint x="530" y="409.5" as="targetPoint" />
            <Array as="points" />
          </mxGeometry>
        </mxCell>
      </root>
    </mxGraphModel>
  </diagram>
</mxfile>
